<svg fill="#b2bff3" xmlns="http://www.w3.org/2000/svg" viewBox="0 0 50 50" width="500px" height="500px">
  <path
    d="M31.676,9.053c-3.029,0-5.819,1.013-8.075,2.703l-3.568-7.25c-0.337-0.684-1.458-0.684-1.795,0L4.9,31.611	c-0.152,0.31-0.134,0.677,0.048,0.97s0.504,0.472,0.849,0.472H15V45c0,0.553,0.448,1,1,1h20c0.552,0,1-0.447,1-1V35	c4.817-2.071,8.203-6.854,8.203-12.421C45.203,15.121,39.135,9.053,31.676,9.053z M37,32.785V25c0-0.553-0.448-1-1-1h-3.415	c-0.26,0.723-0.641,1.393-1.148,2H35v18H17V26h5.632c0.425-0.836,1.015-1.489,1.636-2H16c-0.552,0-1,0.447-1,1v6.053H7.404	L19.136,7.212l3.988,8.104c0.646-0.176,1.342-0.277,2.08-0.302l-0.706-1.434c1.97-1.577,4.463-2.527,7.177-2.527	c6.355,0,11.526,5.171,11.526,11.526C43.203,27.013,40.68,30.859,37,32.785z" />
  <path
    d="M25.559,17c-3.598,0-5.416,2.209-5.559,4.973h2.194c0.139-1.828,1.346-2.984,3.277-2.984c1.909,0,3.16,1.163,3.16,2.75 c0,1.371-0.592,2.19-2.077,3.101c-1.752,1.05-2.56,2.201-2.545,3.891v1.17h2.223v-0.819c0-1.346,0.483-2.084,2.106-3.043 C29.976,25.053,31,23.63,31,21.622C31,18.986,28.784,17,25.559,17z M25.295,32.271c-1.035,0-1.785,0.735-1.785,1.785 c0,1.035,0.746,1.785,1.785,1.785c1.039,0,1.755-0.75,1.755-1.785C27.051,33.006,26.33,32.271,25.295,32.271z" />
</svg>